<?xml version="1.0" encoding="UTF-8" standalone="no"?>
<!DOCTYPE svg PUBLIC "-//W3C//DTD SVG 1.1//EN" "http://www.w3.org/Graphics/SVG/1.1/DTD/svg11.dtd">
<svg width="100%" height="100%" viewBox="0 0 14 16" version="1.1" xmlns="http://www.w3.org/2000/svg" xmlns:xlink="http://www.w3.org/1999/xlink" xml:space="preserve" xmlns:serif="http://www.serif.com/" style="fill-rule:evenodd;clip-rule:evenodd;stroke-linejoin:round;stroke-miterlimit:2;">
    <g transform="matrix(1,0,0,1,-170,-130)">
        <g transform="matrix(0.543141,0,0,0.239774,-7.51695,78.3103)">
            <path d="M337.451,276.223C337.451,276.723 337.354,277.198 337.186,277.517C337.017,277.836 336.796,277.967 336.581,277.874C334.084,276.74 332.001,274.202 330.332,270.25C328,264.727 326.834,257.12 326.834,247.43C326.834,241.228 327.239,236.023 328.049,231.815C328.653,228.714 329.477,225.931 330.523,223.467C331.568,221.003 332.713,219.176 333.958,217.985C335.613,216.38 337.523,215.577 339.686,215.577C343.601,215.577 346.734,218.359 349.084,223.924C351.435,229.489 352.61,237.227 352.61,247.139C352.61,250.435 352.479,253.49 352.217,256.304C352.163,256.847 351.998,257.296 351.773,257.508C351.548,257.72 351.293,257.669 351.088,257.37C349.994,255.779 348.168,253.117 347.362,251.942C347.117,251.584 346.979,250.944 347.004,250.281C347.044,249.187 347.063,248.043 347.063,246.848C347.063,239.871 346.396,234.666 345.06,231.233C343.725,227.8 341.952,226.084 339.74,226.084C337.529,226.084 335.746,227.821 334.393,231.296C333.039,234.77 332.363,240.01 332.363,247.014C332.363,253.908 333.057,259.134 334.447,262.692C335.179,264.566 336.015,265.946 336.955,266.833C337.252,267.103 337.447,267.761 337.447,268.492C337.451,270.378 337.451,273.978 337.451,276.223ZM351.149,263.549C351.467,264.013 351.66,264.816 351.66,265.679C351.66,266.542 351.467,267.346 351.149,267.809L341.491,281.894C341.136,282.411 340.687,282.444 340.319,281.981C339.951,281.518 339.722,280.632 339.722,279.67L339.722,251.799C339.722,250.814 339.956,249.908 340.333,249.435C340.71,248.961 341.169,248.995 341.531,249.524L351.149,263.549Z"/>
        </g>
    </g>
</svg>
