<svg version="1.0" xmlns="http://www.w3.org/2000/svg" width="700pt" height="800" viewBox="0 0 700 600"><path d="M591.99 219.827c7.278 4.889 98.96 77.716 102.7 81.565 6.672 6.867 7.076 17.583 1.112 24.762-3.437 3.953-96.736 78.34-104.217 83.022-10.007 6.242-19.306 3.953-24.158-5.93l-2.224-4.682.202-85.415.303-85.311 2.527-3.85c1.415-2.185 4.347-4.786 6.571-6.034 5.155-2.705 11.422-1.977 17.184 1.873zM288.033 2.283c48.116 6.451 92.592 25.802 126.354 55.036 40.029 34.541 69.747 88.953 82.484 151.063 13.848 67.521 8.693 150.231-13.141 210.261-10.513 28.923-28.202 58.158-48.116 79.798l-8.086 8.843 9.906 13.733c32.245 45.048 47.913 67.729 47.913 69.497 0 1.145-1.314 3.537-2.931 5.41l-2.932 3.433-36.996.313-36.895.312-16.881-23.201c-9.3-12.797-17.184-23.616-17.69-24.137-.505-.52-4.548.833-9.704 3.226-36.288 17.27-76.722 25.385-119.075 23.928-63.784-2.289-119.582-25.697-162.643-68.353-37.401-37.037-59.336-80.525-71.263-141.283-17.993-90.93-6.47-184.564 30.729-250.524C53.42 94.357 75.253 68.243 95.975 51.805 134.084 21.634 181.391 4.052 234.661.202c10.311-.728 41.647.417 53.372 2.081zM115.687 173.01c-13.95 33.292-20.52 69.809-20.52 113.817 0 49.626 7.783 89.265 24.765 125.574 8.693 18.623 15.87 29.651 27.09 41.511 26.08 27.778 53.069 41.511 88.751 45.153 28 2.705 58.628-2.081 80.563-12.589l8.491-4.161-4.548-6.451c-17.488-25.385-68.13-101.853-69.04-104.246-.607-1.56 2.83-1.664 36.895-1.664h37.401l4.852 6.034c2.628 3.225 13.747 17.582 24.563 31.731 10.816 14.15 19.913 25.698 20.217 25.698.505 0 1.314-1.353 7.783-13.005 19.408-34.645 30.325-93.842 27.596-148.566-3.336-66.168-22.643-119.54-55.495-153.352-23.956-24.761-51.754-37.662-88.043-40.887-69.444-6.139-123.018 27.57-151.321 95.403z" style="stroke-width:.103"/></svg>